<svg width="122" height="30" viewBox="0 0 122 30" fill="none" xmlns="http://www.w3.org/2000/svg">
<path d="M113.74 27.505V21.3452C113.74 19.2304 114.124 17.8903 115.36 16.7591C116.933 15.296 119.13 15.3206 119.13 15.3206V10.7591C114.436 10.7591 113.524 13.4271 113.524 13.4271L112.179 11.1771H109.37V27.505H113.74ZM26.1143 27.9353C30.2921 27.9353 31.3846 25.2673 31.3846 25.2673L32.7291 27.5173H35.5383V11.1894H31.1685V19.2919C31.1685 21.4067 30.5322 22.7837 29.5238 23.4353C29.0315 23.7673 28.2392 23.9149 27.4949 23.9149C24.9738 23.9149 24.3375 22.4517 24.3375 20.0296V11.1894H19.9437V21.3452C19.9557 25.9067 22.1766 27.9353 26.1143 27.9353ZM82.5504 10.7591C82.5744 10.7591 82.5744 10.7591 82.5504 10.7591C78.3726 10.7591 77.2802 13.4271 77.2802 13.4271L75.9596 11.1771H73.1504V27.505H77.5203V19.4271C77.5203 17.3124 78.1565 15.9353 79.165 15.2837C79.6572 14.9517 80.4495 14.8042 81.1939 14.8042C83.7149 14.8042 84.3512 16.2673 84.3512 18.6894V27.505H88.7211V17.3493C88.7091 12.7878 86.5001 10.7591 82.5504 10.7591ZM58.3361 10.7591C54.3024 10.7591 53.1379 13.2058 53.1138 13.2304L53.0298 13.4271L52.9218 13.255C51.8293 11.5706 50.2806 10.7714 47.6995 10.7714C43.6658 10.7714 42.5013 13.2181 42.4773 13.2427L42.3933 13.4394L41.0487 11.1894H38.2395V13.4394V16.8206V27.5173H42.6094V19.4394C42.6094 16.2796 43.6778 14.8165 45.9348 14.8165C47.9396 14.8165 48.876 16.0337 48.876 18.6526V27.5173H53.2459V19.3288C53.2459 16.255 54.2903 14.8042 56.5113 14.8042C57.8078 14.8042 59.5126 15.1976 59.5126 18.6894V27.505H63.8824V17.3493C63.9065 12.7878 62.1777 10.7591 58.3361 10.7591ZM7.39829 22.8452V4.62387H2.86035V27.505H18.443V22.8575H7.39829V22.8452ZM65.143 4.62387L68.3844 7.94354L71.6258 4.62387L68.3844 1.3042L65.143 4.62387ZM66.1154 11.1649H70.6533V27.4927H66.1154V11.1649ZM98.9254 10.7591C96.3443 10.7591 94.1474 11.6321 92.5507 13.2919C91.0621 14.8411 90.2457 17.005 90.2457 19.3411C90.2457 21.6771 91.0501 23.8411 92.5507 25.3903C94.1234 27.0501 96.3443 27.9476 98.9254 27.9476C104.04 27.9476 107.617 24.4067 107.617 19.3411C107.617 14.2755 104.04 10.7591 98.9254 10.7591ZM98.9014 24.1362C96.4044 24.1362 94.6156 22.1321 94.6156 19.3534C94.6156 16.6239 96.4524 14.5706 98.9014 14.5706C101.398 14.5706 103.247 16.6239 103.247 19.3534C103.247 22.1075 101.423 24.1362 98.9014 24.1362Z" fill="#481335"/>
</svg>
