<svg width="25" height="25" viewBox="0 0 25 25" fill="none" xmlns="http://www.w3.org/2000/svg">
<path d="M16 5C17.1046 5 18 5.89543 18 7V8H19.5194C20.1269 8 20.7016 8.27618 21.0811 8.75061L22.5617 10.6014C22.8454 10.956 23 11.3966 23 11.8508V16C23 17.1046 22.1046 18 21 18H20C20 19.6569 18.6569 21 17 21C15.3431 21 14 19.6569 14 18H11C11 19.6569 9.65685 21 8 21C6.34315 21 5 19.6569 5 18C3.89543 18 3 17.1046 3 16V7C3 5.89543 3.89543 5 5 5H16ZM8 17C7.44772 17 7 17.4477 7 18C7 18.5523 7.44772 19 8 19C8.55228 19 9 18.5523 9 18C9 17.4477 8.55228 17 8 17ZM17 17C16.4477 17 16 17.4477 16 18C16 18.5523 16.4477 19 17 19C17.5523 19 18 18.5523 18 18C18 17.4477 17.5523 17 17 17ZM19.5194 10H18V14H21V11.8508L19.5194 10Z" fill="#E88320"/>
</svg>
