<svg width="25" height="25" viewBox="0 0 25 25" fill="none" xmlns="http://www.w3.org/2000/svg">
<path d="M21 12.9425C21 8.56202 17.4243 5 13 5C8.57567 5 5 8.56202 5 12.9425C5 14.1324 5.14659 14.8984 5.32843 15.4585C5.44951 15.8313 5.74118 15.4643 5.88468 15.3297C6.8667 14.4083 8.4021 14.4302 9.35736 15.3794C10.7782 16.791 12.0886 18.749 10.2781 20.549C9.30609 21.5154 7.84226 21.9173 6.72834 20.8765C5.29036 19.5328 4.04086 17.9692 3.42619 16.0761C3.169 15.284 3 14.3049 3 12.9425C3 7.44539 7.4832 3 13 3C18.5168 3 23 7.44539 23 12.9425C23 14.3049 22.831 15.284 22.5738 16.0761C21.9591 17.9692 20.7096 19.5328 19.2717 20.8765C18.1577 21.9173 16.6939 21.5154 15.7219 20.549C13.9114 18.749 15.2218 16.791 16.6426 15.3794C17.5979 14.4302 19.1333 14.4083 20.1153 15.3297C20.3925 15.5898 20.5286 15.8989 20.6716 15.4585C20.8534 14.8984 21 14.1324 21 12.9425Z" fill="#E88320"/>
</svg>
