<svg width="92" height="92" viewBox="0 0 92 92" fill="none" xmlns="http://www.w3.org/2000/svg">
<g filter="url(#filter0_d_1218_25039)">
<circle cx="46" cy="46" r="25" fill="white"/>
</g>
<path d="M31.5442 37.8163C31.5442 37.8163 31.5221 35.3694 33.5605 33.9173C35.5988 32.4651 38.4103 32.8082 38.4103 32.8082C38.4103 32.8082 35.5821 58.9879 35.5328 59.3092C35.4835 59.6306 34.4734 61.5658 32.326 61.4368C30.1787 61.3078 29.2017 59.243 29.2705 58.6721C29.3393 58.1012 31.5442 37.8163 31.5442 37.8163Z" fill="url(#paint0_linear_1218_25039)"/>
<path d="M63.2852 56.4921C63.2852 56.4921 63.3072 58.939 61.2688 60.3912C59.2304 61.8434 56.4189 61.5005 56.4189 61.5005C56.4189 61.5005 57.6381 50.1436 57.6874 49.8223C57.7367 49.5009 58.7469 47.5657 60.8943 47.6946C63.0416 47.8235 64.0186 49.8883 63.9497 50.4592C63.8809 51.03 63.2852 56.4921 63.2852 56.4921Z" fill="url(#paint1_linear_1218_25039)"/>
<path d="M44.187 45.7835C44.187 45.7835 44.4958 44.1271 46.295 42.4889C48.0941 40.8508 51.0109 41.064 51.0109 41.064C51.0109 41.064 49.4015 55.932 49.3699 56.2222C49.3384 56.5125 49.3289 58.0201 47.3911 59.795C45.4533 61.5698 42.4556 61.5 42.4556 61.5L44.187 45.7835Z" fill="url(#paint2_linear_1218_25039)"/>
<path d="M50.0527 49.9145L51.0109 41.064L57.3744 52.6449L56.4194 61.502L50.0527 49.9145Z" fill="url(#paint3_linear_1218_25039)"/>
<path d="M36.937 46.4161L38.4093 32.808L43.9492 47.9425L42.4555 61.5022L36.937 46.4161Z" fill="url(#paint4_linear_1218_25039)"/>
<defs>
<filter id="filter0_d_1218_25039" x="0" y="0" width="92" height="92" filterUnits="userSpaceOnUse" color-interpolation-filters="sRGB">
<feFlood flood-opacity="0" result="BackgroundImageFix"/>
<feColorMatrix in="SourceAlpha" type="matrix" values="0 0 0 0 0 0 0 0 0 0 0 0 0 0 0 0 0 0 127 0" result="hardAlpha"/>
<feMorphology radius="1" operator="dilate" in="SourceAlpha" result="effect1_dropShadow_1218_25039"/>
<feOffset/>
<feGaussianBlur stdDeviation="10"/>
<feComposite in2="hardAlpha" operator="out"/>
<feColorMatrix type="matrix" values="0 0 0 0 0.433369 0 0 0 0 0.433369 0 0 0 0 0.433369 0 0 0 0.25 0"/>
<feBlend mode="normal" in2="BackgroundImageFix" result="effect1_dropShadow_1218_25039"/>
<feBlend mode="normal" in="SourceGraphic" in2="effect1_dropShadow_1218_25039" result="shape"/>
</filter>
<linearGradient id="paint0_linear_1218_25039" x1="35.279" y1="32.4894" x2="32.3335" y2="61.4405" gradientUnits="userSpaceOnUse">
<stop stop-color="#5FBEF5"/>
<stop offset="1" stop-color="#FF00A5"/>
</linearGradient>
<linearGradient id="paint1_linear_1218_25039" x1="59.5501" y1="61.8192" x2="60.986" y2="47.7009" gradientUnits="userSpaceOnUse">
<stop stop-color="#5FBEF5"/>
<stop offset="1" stop-color="#FF00A5"/>
</linearGradient>
<linearGradient id="paint2_linear_1218_25039" x1="47.8822" y1="40.7458" x2="45.7376" y2="61.8338" gradientUnits="userSpaceOnUse">
<stop stop-color="#5FBEF5"/>
<stop offset="1" stop-color="#FF00A5"/>
</linearGradient>
<linearGradient id="paint3_linear_1218_25039" x1="50.1771" y1="41.3418" x2="56.8466" y2="61.3596" gradientUnits="userSpaceOnUse">
<stop stop-color="#5E00DF"/>
<stop offset="0.510417" stop-color="#413CA9"/>
<stop offset="1" stop-color="#680BE7"/>
</linearGradient>
<linearGradient id="paint4_linear_1218_25039" x1="35.6556" y1="33.7255" x2="44.6648" y2="60.7661" gradientUnits="userSpaceOnUse">
<stop stop-color="#5E00DF"/>
<stop offset="0.510417" stop-color="#413CA9"/>
<stop offset="1" stop-color="#680BE7"/>
</linearGradient>
</defs>
</svg>
