<svg width="40" height="40" viewBox="0 0 40 40" fill="none" xmlns="http://www.w3.org/2000/svg">
<g clip-path="url(#clip0_1125_11519)">
<path d="M28.7377 21.6667L22.1548 28.2496C21.5038 28.9005 21.5038 29.9557 22.1548 30.6066C22.8057 31.2575 23.861 31.2575 24.5118 30.6066L33.9398 21.1785C34.5908 20.5277 34.5908 19.4723 33.9398 18.8215L24.5118 9.39332C23.861 8.74249 22.8057 8.74249 22.1548 9.39332C21.5038 10.0443 21.5038 11.0995 22.1548 11.7505L28.7377 18.3333H6.66667C5.7462 18.3333 5 19.0795 5 20C5 20.9205 5.7462 21.6667 6.66667 21.6667H28.7377Z" fill="#131313"/>
</g>
<defs>
<clipPath id="clip0_1125_11519">
<rect width="40" height="40" fill="white" transform="matrix(0 -1 1 0 0 40)"/>
</clipPath>
</defs>
</svg>
