<svg width="30" height="30" viewBox="0 0 30 30" fill="none" xmlns="http://www.w3.org/2000/svg">
<path d="M11.25 25C11.9403 25 12.5 25.5596 12.5 26.25C12.5 26.9404 11.9403 27.5 11.25 27.5C10.5596 27.5 10 26.9404 10 26.25C10 25.5596 10.5596 25 11.25 25ZM20 25C20.6904 25 21.25 25.5596 21.25 26.25C21.25 26.9404 20.6904 27.5 20 27.5C19.3096 27.5 18.75 26.9404 18.75 26.25C18.75 25.5596 19.3096 25 20 25ZM4.36879 3.28879L4.50007 3.37507L6.63476 4.97609C7.00029 5.25023 7.28161 5.61765 7.45148 6.03649L7.527 6.25H23.584C25.0251 6.25 26.1537 7.46041 26.0811 8.87456L26.0647 9.06009L25.4935 13.6294C25.1388 16.4675 22.907 18.6897 20.0941 19.0526L19.8109 19.0826L10.6701 19.8444L10.9945 21.2501H21.8751C22.5654 21.2501 23.1251 21.8097 23.1251 22.5001C23.1251 23.1411 22.6425 23.6695 22.0209 23.7417L21.8751 23.7501H10.9945C9.8988 23.7501 8.93961 23.0383 8.61233 22.0089L8.55849 21.8122L5.13476 6.97609L3.00007 5.37507C2.44779 4.96086 2.33586 4.17736 2.75007 3.62507C3.10056 3.15775 3.71545 3.00572 4.23094 3.22095L4.36879 3.28879ZM23.584 8.75H8.10984L10.1021 17.383L19.6032 16.5912C21.3705 16.444 22.7929 15.079 23.0129 13.3194L23.584 8.75Z" fill="#131313"/>
</svg>
