<svg width="24" height="24" viewBox="0 0 24 24" fill="none" xmlns="http://www.w3.org/2000/svg">
<g clip-path="url(#clip0_1220_25120)">
<path fill-rule="evenodd" clip-rule="evenodd" d="M7 7C7 4.23858 9.23858 2 12 2C14.7614 2 17 4.23858 17 7C17 9.41896 15.2822 11.4367 13 11.9V17C13 17.5523 12.5523 18 12 18C11.4477 18 11 17.5523 11 17V11.9C8.71776 11.4367 7 9.41896 7 7ZM9.4886 16.1008C9.57175 16.6468 9.19654 17.1568 8.65055 17.2399C7.37324 17.4345 6.35762 17.7286 5.69077 18.0552C5.35587 18.2192 5.15685 18.3684 5.05419 18.4767C5.04603 18.4853 5.03886 18.4932 5.03256 18.5005C5.06568 18.5389 5.12363 18.5955 5.22292 18.6688C5.50289 18.8757 5.97193 19.1041 6.64142 19.3133C7.9685 19.728 9.86323 20 12 20C14.1368 20 16.0315 19.728 17.3586 19.3133C18.0281 19.1041 18.4971 18.8757 18.7771 18.6688C18.8764 18.5955 18.9343 18.5389 18.9674 18.5005C18.9611 18.4932 18.954 18.4853 18.9458 18.4767C18.8431 18.3684 18.6441 18.2192 18.3092 18.0552C17.6424 17.7286 16.6268 17.4345 15.3495 17.2399C14.8035 17.1568 14.4283 16.6468 14.5114 16.1008C14.5945 15.5548 15.1046 15.1796 15.6505 15.2627C17.0375 15.4739 18.2719 15.8099 19.1889 16.2591C19.646 16.4829 20.0725 16.7581 20.3973 17.1007C20.7267 17.4482 21 17.9208 21 18.5C21 19.3114 20.4757 19.9005 19.9656 20.2774C19.4359 20.6688 18.7334 20.9791 17.9551 21.2223C16.3868 21.7124 14.2815 22 12 22C9.71849 22 7.61323 21.7124 6.04487 21.2223C5.26665 20.9791 4.56412 20.6688 4.03444 20.2774C3.52434 19.9005 3 19.3114 3 18.5C3 17.9208 3.27333 17.4482 3.60275 17.1007C3.92755 16.7581 4.35398 16.4829 4.81105 16.2591C5.72815 15.8099 6.96253 15.4739 8.34945 15.2627C8.89544 15.1796 9.40546 15.5548 9.4886 16.1008Z" fill="#E88320"/>
</g>
<defs>
<clipPath id="clip0_1220_25120">
<rect width="24" height="24" fill="white"/>
</clipPath>
</defs>
</svg>
