<svg width="24" height="24" viewBox="0 0 24 24" fill="none" xmlns="http://www.w3.org/2000/svg">
<g clip-path="url(#clip0_1220_25114)">
<path d="M17.5 3C19.9143 3 21.8845 4.90124 21.9951 7.28816L22 7.5V15C22 16.0544 21.1841 16.9182 20.1493 16.9945L20 17H17V20C17 20.5523 16.5523 21 16 21C15.4872 21 15.0645 20.614 15.0067 20.1166L15 20V17H4C2.94564 17 2.08183 16.1842 2.00549 15.1493L2 15V7.5C2 5.08573 3.90124 3.11551 6.28816 3.0049L6.5 3H17.5ZM6.5 5C5.11929 5 4 6.11929 4 7.5V15H9V7.5C9 6.11929 7.88071 5 6.5 5ZM7 8C7.55228 8 8 8.44772 8 9C8 9.51283 7.61396 9.93551 7.11662 9.99327L7 10H6C5.44772 10 5 9.55228 5 9C5 8.48717 5.38604 8.06449 5.88338 8.00673L6 8H7Z" fill="#E88320"/>
</g>
<defs>
<clipPath id="clip0_1220_25114">
<rect width="24" height="24" fill="white"/>
</clipPath>
</defs>
</svg>
