<svg width="30" height="30" viewBox="0 0 30 30" fill="none" xmlns="http://www.w3.org/2000/svg">
<g clip-path="url(#clip0_914_48938)">
<path fill-rule="evenodd" clip-rule="evenodd" d="M14.9999 16.768L22.0709 23.8391C22.5591 24.3273 23.3506 24.3273 23.8387 23.8391C24.3268 23.3509 24.3268 22.5595 23.8387 22.0712L16.7677 15.0003L23.8387 7.92919C24.3268 7.44104 24.3268 6.64958 23.8387 6.16143C23.3506 5.67326 22.5591 5.67326 22.0709 6.16143L14.9999 13.2325L7.9288 6.1614C7.44065 5.67325 6.64918 5.67325 6.16103 6.1614C5.67288 6.64956 5.67288 7.44101 6.16103 7.92918L13.2321 15.0003L6.16103 22.0714C5.67288 22.5595 5.67288 23.3509 6.16103 23.8391C6.64918 24.3273 7.44065 24.3273 7.9288 23.8391L14.9999 16.768Z" fill="#131313"/>
</g>
<defs>
<clipPath id="clip0_914_48938">
<rect width="30" height="30" fill="white"/>
</clipPath>
</defs>
</svg>
