<svg width="30" height="30" viewBox="0 0 30 30" fill="none" xmlns="http://www.w3.org/2000/svg">
<path fill-rule="evenodd" clip-rule="evenodd" d="M6.25 12.5C6.25 9.04823 9.04823 6.25 12.5 6.25C15.9518 6.25 18.75 9.04823 18.75 12.5C18.75 15.9518 15.9518 18.75 12.5 18.75C9.04823 18.75 6.25 15.9518 6.25 12.5ZM12.5 3.75C7.66751 3.75 3.75 7.66751 3.75 12.5C3.75 17.3325 7.66751 21.25 12.5 21.25C14.4654 21.25 16.2795 20.602 17.7403 19.508L24.1161 25.8839C24.6043 26.372 25.3958 26.372 25.8839 25.8839C26.372 25.3958 26.372 24.6043 25.8839 24.1161L19.508 17.7403C20.602 16.2795 21.25 14.4654 21.25 12.5C21.25 7.66751 17.3325 3.75 12.5 3.75Z" fill="#131313"/>
</svg>
