<svg width="22" height="22" viewBox="0 0 22 22" fill="none" xmlns="http://www.w3.org/2000/svg">
<path fill-rule="evenodd" clip-rule="evenodd" d="M9.1 1.29999C5.45492 1.29999 2.5 4.25491 2.5 7.89999V11C2.5 13.7292 4.1566 16.0716 6.51912 17.0763C6.51466 17.926 6.50479 19.7992 6.50336 20.0075C6.50336 20.1966 6.53428 20.3259 6.64559 20.3526C6.72567 20.3716 6.84564 20.3313 6.94768 20.2326C7.42417 19.7681 8.66538 18.34 9.30315 17.6H12.9C16.5451 17.6 19.5 14.6451 19.5 11V7.89999C19.5 4.25491 16.5451 1.29999 12.9 1.29999H9.1ZM11.4535 7.48986C11.461 7.35032 11.5836 7.2431 11.7274 7.25038C12.2652 7.27762 12.7127 7.43565 13.0314 7.7555C13.3489 8.07414 13.5045 8.51927 13.5318 9.05386C13.539 9.19342 13.4282 9.31217 13.2844 9.31909C13.1406 9.32601 13.0183 9.21849 13.0112 9.07893C12.9878 8.62131 12.8584 8.30977 12.6567 8.10729C12.4562 7.90603 12.1501 7.77849 11.7002 7.7557C11.5564 7.74842 11.446 7.6294 11.4535 7.48986ZM11.3373 5.89296C11.1937 5.88276 11.0688 5.98746 11.0583 6.12682C11.0478 6.26618 11.1557 6.38742 11.2993 6.39762C12.2917 6.46812 13.037 6.79055 13.5702 7.35543C14.105 7.92267 14.3675 8.62976 14.3481 9.49612C14.345 9.63582 14.4592 9.75152 14.6031 9.75454C14.747 9.75756 14.8662 9.64677 14.8693 9.50707C14.8912 8.52466 14.5895 7.6871 13.9548 7.01381L13.9547 7.01372C13.3129 6.33375 12.4319 5.97072 11.3373 5.89296ZM10.5982 4.83108C10.5992 4.69135 10.7167 4.57887 10.8606 4.57984C12.3733 4.59007 13.6519 5.07887 14.6784 6.05026C15.7136 7.02977 16.2255 8.36328 16.2385 10.0195C16.2396 10.1592 16.1238 10.2733 15.9798 10.2744C15.8359 10.2755 15.7183 10.1631 15.7172 10.0233C15.705 8.47139 15.2294 7.27825 14.3145 6.41259C13.3911 5.53881 12.2446 5.09522 10.857 5.08584C10.713 5.08487 10.5971 4.97081 10.5982 4.83108ZM12.3295 12.2493C12.1323 12.4852 11.7659 12.4551 11.7659 12.4551C9.08795 11.7916 8.37123 9.15856 8.37123 9.15856C8.37123 9.15856 8.33908 8.80291 8.58334 8.61143L9.06723 8.23808C9.30717 8.0586 9.46022 7.62312 9.21595 7.19784C9.0286 6.87862 8.82489 6.5687 8.6056 6.26925C8.39257 5.98684 7.89631 5.40849 7.89445 5.40669C7.65514 5.13268 7.30327 5.06905 6.93224 5.25663C6.93111 5.25663 6.92957 5.25712 6.92809 5.25758C6.92672 5.25802 6.9254 5.25843 6.92451 5.25843C6.55548 5.46482 6.22273 5.72702 5.93879 6.03516C5.93783 6.03704 5.93686 6.03793 5.93589 6.03883C5.935 6.03966 5.93412 6.04048 5.93323 6.04206C5.70401 6.31057 5.57281 6.57378 5.53962 6.83169C5.53273 6.86972 5.53035 6.90838 5.53251 6.94694C5.53128 7.06083 5.54914 7.17415 5.58538 7.28248L5.59806 7.29088C5.7137 7.68945 6.00311 8.35332 6.63201 9.46019C6.99173 10.1004 7.4066 10.7099 7.87219 11.2822C8.10546 11.5691 8.35549 11.8428 8.62106 12.1019C8.63065 12.1112 8.63992 12.1205 8.64951 12.1295L8.67795 12.1571L8.7064 12.1847L8.73485 12.2123C9.00176 12.4701 9.28369 12.7128 9.57926 12.9392C10.1689 13.3912 10.797 13.7939 11.4567 14.143C12.5967 14.7535 13.2813 15.0344 13.6912 15.1467L13.6999 15.159C13.8115 15.1943 13.9282 15.2117 14.0456 15.2106C14.0853 15.2125 14.1251 15.21 14.1643 15.2034C14.4304 15.1728 14.7014 15.0456 14.9772 14.8219C14.9788 14.8211 14.9797 14.8202 14.9805 14.8193C14.9814 14.8184 14.9824 14.8175 14.9843 14.8165C15.3017 14.5408 15.572 14.2179 15.7848 13.8597C15.7848 13.8589 15.7852 13.8576 15.7855 13.8562C15.7859 13.8548 15.7864 13.8533 15.7864 13.8522C15.9796 13.4921 15.914 13.1505 15.6302 12.9179C15.6298 12.9179 15.6067 12.8994 15.5675 12.8681C15.4067 12.7394 14.9755 12.3947 14.7416 12.2276C14.4334 12.0148 14.1144 11.8171 13.7859 11.6352C13.3474 11.3981 12.8997 11.5467 12.7142 11.7796L12.3295 12.2493Z" fill="#E88320"/>
</svg>
