<svg width="30" height="30" viewBox="0 0 30 30" fill="none" xmlns="http://www.w3.org/2000/svg">
<path d="M21.25 16.25C21.25 17.2855 20.4105 18.125 19.375 18.125C18.3395 18.125 17.5 17.2855 17.5 16.25C17.5 15.2145 18.3395 14.375 19.375 14.375C20.4105 14.375 21.25 15.2145 21.25 16.25Z" fill="#131313"/>
<path fill-rule="evenodd" clip-rule="evenodd" d="M6.0165 7.15954L19.7665 3.23097C21.7627 2.66059 23.75 4.15954 23.75 6.23573V7.49999C25.1307 7.49999 26.25 8.61928 26.25 9.99999V22.5C26.25 23.8808 25.1307 25 23.75 25H6.25C4.86929 25 3.75 23.8808 3.75 22.5V9.99999C3.75 8.69429 4.79354 7.50895 6.0165 7.15954ZM20.4533 5.63478C20.8525 5.5207 21.25 5.82049 21.25 6.23573V7.49999H13.9251L20.4533 5.63478ZM6.25 9.99999H23.75V22.5H6.25C6.25 18.7689 6.25 9.99999 6.25 9.99999Z" fill="#131313"/>
</svg>
