<svg width="25" height="25" viewBox="0 0 25 25" fill="none" xmlns="http://www.w3.org/2000/svg">
<path fill-rule="evenodd" clip-rule="evenodd" d="M11.5857 2.10068C12.3257 1.36074 13.5011 1.32179 14.2869 1.98385L14.4141 2.10068L16.3136 4.00017H18.9999C20.0543 4.00017 20.9181 4.81605 20.9944 5.85091L20.9999 6.00017V8.68644L22.8994 10.5859C23.6394 11.3259 23.6783 12.5014 23.0162 13.2872L22.8994 13.4144L20.9999 15.3139V18.0002C20.9999 19.0545 20.184 19.9184 19.1492 19.9947L18.9999 20.0002H16.3136L14.4141 21.8996C13.6742 22.6396 12.4987 22.6786 11.7129 22.0165L11.5857 21.8996L9.68622 20.0002H6.99991C5.94554 20.0002 5.08174 19.1843 5.00539 18.1495L4.99991 18.0002V15.3138L3.10043 13.4144C2.36049 12.6744 2.32155 11.499 2.9836 10.7131L3.10044 10.5859L4.99991 8.68648V6.00017C4.99991 4.94581 5.81578 4.082 6.85064 4.00566L6.99991 4.00017H9.68622L11.5857 2.10068ZM16.0794 8.98273L11.8348 13.2272L10.067 11.4595C9.67652 11.069 9.04336 11.069 8.65283 11.4595C8.26231 11.85 8.26231 12.4832 8.65283 12.8737L11.057 15.2779C11.4866 15.7074 12.1831 15.7074 12.6126 15.2779L17.4936 10.3969C17.8841 10.0064 17.8841 9.37326 17.4936 8.98273C17.103 8.59221 16.4699 8.59221 16.0794 8.98273Z" fill="#E88320"/>
</svg>
