<svg width="24" height="24" viewBox="0 0 24 24" fill="none" xmlns="http://www.w3.org/2000/svg">
<path fill-rule="evenodd" clip-rule="evenodd" d="M3 5C3.51283 5 3.93551 5.38604 3.99327 5.88338L4 6V13H11V8C11 7.48717 11.386 7.06449 11.8834 7.00673L12 7H19C20.5977 7 21.9037 8.24892 21.9949 9.82373L22 10V18C22 18.5523 21.5523 19 21 19C20.4872 19 20.0645 18.614 20.0067 18.1166L20 18V15H4V18C4 18.5523 3.55228 19 3 19C2.48717 19 2.06449 18.614 2.00673 18.1166L2 18V6C2 5.44772 2.44772 5 3 5ZM7.5 7C8.88071 7 10 8.11929 10 9.5C10 10.8807 8.88071 12 7.5 12C6.11929 12 5 10.8807 5 9.5C5 8.11929 6.11929 7 7.5 7Z" fill="#E88320"/>
</svg>
