<svg width="108" height="30" viewBox="0 0 108 30" fill="none" xmlns="http://www.w3.org/2000/svg">
<g clip-path="url(#clip0_1104_10490)">
<path d="M2.54407 5.8163C2.54407 5.8163 2.52201 3.36938 4.56034 1.91724C6.59867 0.465105 9.41014 0.808185 9.41014 0.808185C9.41014 0.808185 6.58194 26.9879 6.53267 27.3092C6.48339 27.6306 5.47327 29.5658 3.3259 29.4368C1.17854 29.3078 0.201563 27.243 0.270357 26.6721C0.339151 26.1012 2.54407 5.8163 2.54407 5.8163Z" fill="url(#paint0_linear_1104_10490)"/>
<path d="M34.2854 24.4921C34.2854 24.4921 34.3074 26.939 32.269 28.3912C30.2306 29.8434 27.4191 29.5005 27.4191 29.5005C27.4191 29.5005 28.6383 18.1436 28.6876 17.8223C28.7369 17.5009 29.7471 15.5657 31.8945 15.6946C34.0418 15.8235 35.0188 17.8883 34.9499 18.4592C34.8811 19.03 34.2854 24.4921 34.2854 24.4921Z" fill="url(#paint1_linear_1104_10490)"/>
<path d="M15.1871 13.7835C15.1871 13.7835 15.4959 12.1271 17.2951 10.4889C19.0942 8.85077 22.011 9.06403 22.011 9.06403C22.011 9.06403 20.4016 23.932 20.37 24.2222C20.3385 24.5125 20.329 26.0201 18.3912 27.795C16.4534 29.5698 13.4557 29.5 13.4557 29.5L15.1871 13.7835Z" fill="url(#paint2_linear_1104_10490)"/>
<path d="M21.0529 17.9145L22.0111 9.06403L28.3746 20.6449L27.4196 29.502L21.0529 17.9145Z" fill="url(#paint3_linear_1104_10490)"/>
<path d="M7.93713 14.4161L9.40945 0.808044L14.9494 15.9425L13.4557 29.5022L7.93713 14.4161Z" fill="url(#paint4_linear_1104_10490)"/>
<path d="M50.3126 17.5916L51.8789 12.2097L53.4975 17.5916H56.933L59.9613 9.07208H56.9225L55.21 14.6029L53.6332 9.07208H50.2917L48.7358 14.6945L46.971 9.07208H43.6713L46.6995 17.5916H50.3126Z" fill="#292932"/>
<path d="M65.145 14.0876H62.5658L63.8397 11.1562L65.145 14.0876ZM66.7009 17.5916H69.9485L65.8864 9.07208H61.8974L58.0547 17.5916H61.0621L61.6573 16.2175H66.0952L66.7009 17.5916Z" fill="#292932"/>
<path d="M73.2526 11.1447H76.6568C77.3251 11.1447 77.5549 11.4653 77.5549 11.8661V11.8776C77.5549 12.2898 77.3147 12.6104 76.6568 12.6104H73.2526V11.1447ZM73.2526 14.6716H76.0929C77.2625 14.6716 77.6697 15.1755 77.6697 16.1488V17.145C77.6697 17.3855 77.6906 17.5 77.7637 17.5916H80.792V17.5344C80.7189 17.3855 80.6458 17.1679 80.6458 16.5725V15.3129C80.6458 14.2136 80.0088 13.5265 79.0481 13.2861C79.6329 13.1372 80.6145 12.6219 80.6145 11.3852V11.2592C80.6145 9.87365 79.612 9.07208 77.346 9.07208H70.287V17.5916H73.2526V14.6716Z" fill="#292932"/>
<path d="M81.4635 17.5916H84.3561V12.2784L87.0711 17.5916H88.5852L91.3106 12.2784V17.5916H94.2449V9.07208H90.3395L87.9169 13.8586L85.536 9.07208H81.4635V17.5916Z" fill="#292932"/>
<path d="M49.8932 29.6977C53.9762 29.6977 54.7071 28.232 54.7071 26.8006V26.6403C54.7071 24.9227 53.5584 24.1669 50.6032 24.0753L49.204 24.0409C47.742 24.0066 47.5123 23.7318 47.5123 23.3882V23.3768C47.5123 23.0447 47.6689 22.747 49.2248 22.747H49.3293C51.0105 22.747 51.1776 23.3424 51.209 23.6516H54.4356V23.56C54.4356 22.2088 53.5584 20.869 49.7156 20.869H48.7864C45.1629 20.869 44.3171 22.0828 44.3171 23.4684V23.5714C44.3171 24.8883 45.121 26.0449 48.1284 26.1365L49.5695 26.1823C51.1985 26.2395 51.3969 26.5144 51.3969 26.9495V26.9609C51.3969 27.3732 51.1567 27.7625 49.4963 27.7625H49.4025C47.7108 27.7625 47.4914 27.0182 47.4601 26.5602H44.2021V26.6747C44.2021 27.7854 44.6512 29.6977 48.943 29.6977H49.8932Z" fill="#292932"/>
<path d="M58.0601 29.5374H61.0257V26.354L65.1817 21.0179H61.9342L59.6264 23.9608L57.3605 21.0179H53.8101L58.0601 26.3311V29.5374Z" fill="#292932"/>
<path d="M70.2475 29.6977C74.3304 29.6977 75.0614 28.232 75.0614 26.8006V26.6403C75.0614 24.9227 73.9127 24.1669 70.9576 24.0753L69.5583 24.0409C68.0964 24.0066 67.8666 23.7318 67.8666 23.3882V23.3768C67.8666 23.0447 68.0233 22.747 69.5792 22.747H69.6836C71.3648 22.747 71.5319 23.3424 71.5632 23.6516H74.7899V23.56C74.7899 22.2088 73.9127 20.869 70.07 20.869H69.1406C65.5171 20.869 64.6713 22.0828 64.6713 23.4684V23.5714C64.6713 24.8883 65.4753 26.0449 68.4827 26.1365L69.9238 26.1823C71.5528 26.2395 71.7512 26.5144 71.7512 26.9495V26.9609C71.7512 27.3732 71.511 27.7625 69.8507 27.7625H69.7567C68.065 27.7625 67.8457 27.0182 67.8144 26.5602H64.5564V26.6747C64.5564 27.7854 65.0054 29.6977 69.2972 29.6977H70.2475Z" fill="#292932"/>
<path d="M78.5981 29.5374H81.5638V23.3424H84.9157V21.0179H75.2462V23.3424H78.5981V29.5374Z" fill="#292932"/>
<path d="M85.6838 21.0179V29.5374H94.3613V27.4075H88.6076V26.2395H93.4171V24.1669H88.6076V23.102H94.2778V21.0179H85.6838Z" fill="#292932"/>
<path d="M95.2186 29.5374H98.1111V24.2242L100.826 29.5374H102.34L105.066 24.2242V29.5374H108V21.0179H104.095L101.672 25.8044L99.2911 21.0179H95.2186V29.5374Z" fill="#292932"/>
</g>
<defs>
<linearGradient id="paint0_linear_1104_10490" x1="6.27891" y1="0.489378" x2="3.33342" y2="29.4405" gradientUnits="userSpaceOnUse">
<stop stop-color="#E88320"/>
<stop offset="1" stop-color="#E84420"/>
</linearGradient>
<linearGradient id="paint1_linear_1104_10490" x1="30.5503" y1="29.8192" x2="31.9862" y2="15.7009" gradientUnits="userSpaceOnUse">
<stop stop-color="#E88320"/>
<stop offset="1" stop-color="#E83820"/>
</linearGradient>
<linearGradient id="paint2_linear_1104_10490" x1="18.8823" y1="8.74584" x2="16.7377" y2="29.8338" gradientUnits="userSpaceOnUse">
<stop stop-color="#E88320"/>
<stop offset="1" stop-color="#E84420"/>
</linearGradient>
<linearGradient id="paint3_linear_1104_10490" x1="19.7148" y1="9.71753" x2="24.3393" y2="30.0646" gradientUnits="userSpaceOnUse">
<stop stop-color="#BF956C"/>
<stop offset="0.510417" stop-color="#E7913D"/>
<stop offset="1" stop-color="#BF956C"/>
</linearGradient>
<linearGradient id="paint4_linear_1104_10490" x1="6.65567" y1="1.72553" x2="15.665" y2="28.7661" gradientUnits="userSpaceOnUse">
<stop stop-color="#BF956C"/>
<stop offset="0.510417" stop-color="#E7913D"/>
<stop offset="1" stop-color="#BF956C"/>
</linearGradient>
<clipPath id="clip0_1104_10490">
<rect width="108" height="30" fill="white"/>
</clipPath>
</defs>
</svg>
