<svg width="120" height="80" viewBox="0 0 120 80" fill="none" xmlns="http://www.w3.org/2000/svg">
<circle opacity="0.1" cx="20" cy="40" r="20" fill="#FCD8A9"/>
<path opacity="0.1" fill-rule="evenodd" clip-rule="evenodd" d="M50.0001 70C66.5687 70 80.0001 56.5685 80.0001 40C80.0001 23.4315 66.5687 10 50.0001 10C40.5774 10 32.1693 14.3442 26.6694 21.139C34.436 23.8853 40.0001 31.2929 40.0001 40C40.0001 48.7071 34.436 56.1147 26.6694 58.861C32.1693 65.6558 40.5774 70 50.0001 70Z" fill="#EFBF81"/>
<path opacity="0.1" fill-rule="evenodd" clip-rule="evenodd" d="M80 80C102.091 80 120 62.0914 120 40C120 17.9086 102.091 0 80 0C69.7563 0 60.412 3.85061 53.3355 10.1833C68.3343 11.8425 80 24.5589 80 40C80 55.4411 68.3343 68.1575 53.3355 69.8167C60.412 76.1494 69.7563 80 80 80Z" fill="#F9AD47"/>
</svg>
