<svg width="24" height="24" viewBox="0 0 24 24" fill="none" xmlns="http://www.w3.org/2000/svg">
<path fill-rule="evenodd" clip-rule="evenodd" d="M12.2304 3C16.0086 3 19.1498 5.90885 19.4396 9.67588L19.9837 16.7494C20.6069 17.2991 21 18.1036 21 19C21 20.6569 19.6569 22 18 22C16.3431 22 15 20.6569 15 19H6C4.34315 19 3 17.6569 3 16C3 14.6938 3.83481 13.5825 5 13.1707V10.2304C5 6.23717 8.23717 3 12.2304 3ZM18 18C17.4477 18 17 18.4477 17 19C17 19.5523 17.4477 20 18 20C18.5523 20 19 19.5523 19 19C19 18.4477 18.5523 18 18 18ZM15.2792 15H6C5.44772 15 5 15.4477 5 16C5 16.5128 5.38604 16.9355 5.88338 16.9933L6 17H15.7639L15.8988 16.8587L15.2792 15Z" fill="#E88320"/>
</svg>
