<svg width="50" height="50" viewBox="0 0 50 50" fill="none" xmlns="http://www.w3.org/2000/svg">
<g clip-path="url(#clip0_1170_23413)">
<path d="M25.214 46.7263C37.3602 46.7263 47.2066 36.8799 47.2066 24.7338C47.2066 12.5876 37.3602 2.74121 25.214 2.74121C13.0679 2.74121 3.22147 12.5876 3.22147 24.7338C3.22147 36.8799 13.0679 46.7263 25.214 46.7263Z" fill="white"/>
<path d="M40.2713 11.3306L40.4343 11.5041C40.5069 11.587 40.5787 11.6707 40.6497 11.755L30.5975 17.0566L24.8975 11.3342L19.1751 17.0568L13.784 14.1715V20.329H36.5587V33.8262L24.8995 41.2406L13.2368 33.9863V22.8596H13.784V33.6822L24.8961 40.5944L36.0116 33.5257V20.8762H13.2368V13.258L19.0752 16.3827L24.898 10.5598L30.6983 16.3828L40.2713 11.3306ZM49.7917 24.9997C49.7917 38.6918 38.6921 49.7913 25 49.7913C11.3079 49.7913 0.208344 38.6918 0.208344 24.9997C0.208349 11.3076 11.3079 0.208008 25 0.208008C38.6921 0.208008 49.7917 11.3076 49.7917 24.9997ZM45.5031 24.9997C45.51 20.1484 43.7895 15.4532 40.6497 11.755L40.6633 11.7478L40.4343 11.5041C38.512 9.30067 36.1397 7.53505 33.4772 6.32624C30.8147 5.11744 27.924 4.49354 25 4.49662C13.6765 4.49662 4.49692 13.6761 4.49692 24.9997C4.49692 36.3232 13.6765 45.5028 25 45.5028C36.3236 45.5028 45.5031 36.3232 45.5031 24.9997Z" fill="url(#paint0_linear_1170_23413)"/>
<path d="M9.20263 42.2441C9.10512 42.1548 9.02659 42.0468 8.97171 41.9265C8.91683 41.8062 8.88674 41.6761 8.88322 41.5439C8.8808 41.4114 8.90595 41.2799 8.95708 41.1577C9.0082 41.0354 9.08417 40.9252 9.18017 40.8339C9.26919 40.7351 9.37814 40.6564 9.49984 40.6029C9.62154 40.5494 9.75321 40.5223 9.88615 40.5235C10.1534 40.5294 10.4073 40.6409 10.5925 40.8336C10.6887 40.9275 10.7667 41.0383 10.8226 41.1606C10.8769 41.2717 10.9027 41.3946 10.8979 41.5182L10.4644 41.5251C10.4751 41.4557 10.4662 41.3846 10.4388 41.3199C10.4108 41.2517 10.3691 41.1901 10.3162 41.1388C10.266 41.0869 10.2052 41.0463 10.138 41.02C10.0708 40.9937 9.99867 40.9822 9.92659 40.9863C9.77475 40.9953 9.63244 41.0633 9.53003 41.1757C9.41903 41.2802 9.35268 41.4235 9.3448 41.5757C9.34235 41.6471 9.35542 41.7182 9.38313 41.7841C9.41084 41.8499 9.45252 41.909 9.50529 41.9571C9.55701 42.0138 9.62232 42.0563 9.69505 42.0806C9.76778 42.1049 9.84551 42.1103 9.92089 42.0962L9.93685 42.5276C9.801 42.5389 9.66435 42.5193 9.53719 42.4702C9.41002 42.421 9.29564 42.3438 9.20263 42.2441Z" fill="white"/>
<path d="M9.9581 42.8923L11.1739 41.459L12.1283 42.2688L11.8794 42.5623L11.2558 42.0333L11.0274 42.3024L11.617 42.8026L11.3818 43.0799L10.7922 42.5799L10.5397 42.8774L11.1993 43.437L10.9487 43.7326L9.9581 42.8923Z" fill="white"/>
<path d="M11.2495 43.9661L12.3548 42.4463L12.9077 42.8484C13.064 42.9505 13.1854 43.0977 13.2558 43.2706C13.3093 43.4222 13.2762 43.5803 13.1565 43.7448C13.0874 43.8476 12.9854 43.9239 12.8673 43.9613C12.7604 43.9939 12.6462 43.9938 12.5395 43.9608C12.4212 43.922 12.3102 43.8639 12.2108 43.789L12.0299 43.6574L11.6131 44.2307L11.2495 43.9661ZM12.2423 43.3656L12.3954 43.4769C12.5698 43.6037 12.7018 43.6055 12.7913 43.4824C12.8756 43.3665 12.8327 43.2467 12.6626 43.123L12.5031 43.0071L12.2423 43.3656Z" fill="white"/>
<path d="M12.9849 45.1724L13.7711 43.9044L13.3241 43.6273L13.5284 43.2979L14.8044 44.0892L14.6002 44.4185L14.1532 44.1414L13.3671 45.4093L12.9849 45.1724Z" fill="white"/>
<path d="M14.0745 45.8372L14.9307 44.1641L15.3263 44.3665L14.7627 45.4677L14.7721 45.4725L15.9723 44.6972L16.3937 44.9128L15.5375 46.5859L15.1418 46.3833L15.692 45.3081L15.6851 45.3045L14.5028 46.0564L14.0745 45.8372Z" fill="white"/>
<path d="M16.6912 47.1256L16.7739 46.9128C16.5576 46.8349 16.3778 46.6797 16.2693 46.4771C16.225 46.3806 16.2003 46.2763 16.1965 46.1702C16.1928 46.0641 16.2101 45.9584 16.2475 45.859C16.2848 45.7597 16.3415 45.6687 16.4142 45.5914C16.487 45.5141 16.5743 45.4519 16.6712 45.4085C16.8932 45.3384 17.133 45.349 17.348 45.4385L17.4097 45.2803L17.8287 45.4434L17.767 45.6016C17.9863 45.6813 18.1704 45.8358 18.2872 46.0378C18.3296 46.135 18.3523 46.2397 18.3538 46.3458C18.3554 46.4519 18.3359 46.5573 18.2963 46.6557C18.2568 46.7542 18.1981 46.8438 18.1236 46.9194C18.0491 46.9949 17.9604 47.0549 17.8625 47.0959C17.6446 47.1726 17.4059 47.1655 17.193 47.0759L17.1101 47.2887L16.6912 47.1256ZM16.9137 46.5541L17.2083 45.7972C17.0993 45.7565 16.9791 45.7579 16.871 45.8011C16.7787 45.8485 16.7085 45.93 16.6753 46.0283C16.5886 46.251 16.6681 46.4262 16.9137 46.5541ZM17.3327 46.7174C17.6 46.7891 17.7771 46.7137 17.8638 46.4911C17.9057 46.3962 17.9092 46.2888 17.8733 46.1914C17.8229 46.0865 17.7352 46.0041 17.6274 45.9603L17.3327 46.7174Z" fill="white"/>
<path d="M18.329 47.6727L18.8298 45.8613L19.2582 45.9797L18.9286 47.172L18.9387 47.1748L19.9577 46.173L20.414 46.2992L19.9131 48.1106L19.4848 47.9922L19.8065 46.828L19.799 46.826L18.7928 47.8009L18.329 47.6727Z" fill="white"/>
<path d="M20.3914 48.2163L20.7278 46.3672L21.1625 46.4463L21.0256 47.1984L21.0333 47.1999L21.8247 46.5667L22.3784 46.6675L21.4343 47.3753L22.0885 48.5251L21.5116 48.4201L20.9861 47.4448L20.9809 47.4438L20.826 48.2952L20.3914 48.2163Z" fill="white"/>
<path d="M22.1023 48.5272L23.0545 46.7285L23.4892 46.769L24.0842 48.7122L23.5868 48.6656L23.4771 48.2849L22.7597 48.2179L22.5894 48.5727L22.1023 48.5272ZM22.9218 47.8678L23.3878 47.9113L23.2174 47.2476L22.9218 47.8678Z" fill="white"/>
<path d="M24.5106 48.7095L24.5422 47.2179L24.0164 47.2068L24.0246 46.8193L25.5257 46.8512L25.5176 47.2386L24.9918 47.2275L24.9603 48.7191L24.5106 48.7095Z" fill="white"/>
<path d="M28.0834 48.2951C28.0035 48.4055 27.8995 48.4963 27.7794 48.5608C27.6593 48.6252 27.5261 48.6616 27.3899 48.6671C27.2586 48.6828 27.1255 48.672 26.9985 48.6352C26.8715 48.5984 26.7532 48.5364 26.6506 48.453C26.5486 48.3684 26.4653 48.2635 26.406 48.1451C26.3466 48.0266 26.3126 47.8971 26.3059 47.7648C26.289 47.6329 26.3003 47.4989 26.3391 47.3718C26.3779 47.2446 26.4432 47.1271 26.5308 47.0271C26.7094 46.8283 26.9595 46.7084 27.2263 46.6936C27.3602 46.6819 27.4951 46.695 27.6243 46.7322C27.7439 46.7635 27.8539 46.824 27.9445 46.9083L27.6672 47.2415C27.6215 47.1882 27.5618 47.1486 27.495 47.1272C27.4251 47.1039 27.3511 47.0954 27.2777 47.1021C27.2057 47.1063 27.1353 47.126 27.0715 47.1598C27.0077 47.1936 26.9519 47.2408 26.908 47.2981C26.8159 47.4192 26.7747 47.5714 26.7931 47.7224C26.8 47.8747 26.8654 48.0184 26.9757 48.1236C27.0283 48.1719 27.0907 48.2084 27.1587 48.2303C27.2267 48.2522 27.2986 48.2591 27.3695 48.2506C27.4462 48.2482 27.521 48.2264 27.5869 48.1871C27.6527 48.1478 27.7075 48.0923 27.7459 48.026L28.0834 48.2951Z" fill="white"/>
<path d="M29.8884 48.2517L29.37 48.3402L28.8477 47.6729L28.6974 47.6985L28.823 48.4338L28.3876 48.5083L28.0709 46.6557L28.7707 46.536C28.8578 46.5205 28.9464 46.5153 29.0348 46.5205C29.1166 46.5259 29.1971 46.544 29.2734 46.574C29.3499 46.6043 29.4164 46.6554 29.4653 46.7216C29.5198 46.7968 29.5554 46.884 29.5689 46.976C29.5911 47.0886 29.5744 47.2054 29.5214 47.3072C29.4654 47.4093 29.3786 47.4911 29.2733 47.5409L29.8884 48.2517ZM29.1322 47.0586C29.1087 46.921 28.9984 46.8689 28.8014 46.9025L28.5654 46.9428L28.6394 47.3746L28.8493 47.3388C29.0635 47.302 29.1578 47.2086 29.1322 47.0586Z" fill="white"/>
<path d="M31.4502 47.8606L30.1907 48.1783L29.7308 46.356L30.9444 46.0498L31.0387 46.4231L30.2456 46.623L30.332 46.9654L31.0817 46.7763L31.1707 47.129L30.421 47.318L30.5165 47.6964L31.3553 47.4848L31.4502 47.8606Z" fill="white"/>
<path d="M33.1639 46.2938C33.2142 46.4314 33.2327 46.5786 33.2179 46.7243C33.2048 46.8531 33.1599 46.9767 33.0874 47.0839C33.0165 47.1869 32.9286 47.277 32.8275 47.3505C32.7229 47.4263 32.6076 47.486 32.4853 47.5275L31.8289 47.7539L31.2161 45.9771L31.8525 45.7577C31.9519 45.7229 32.0544 45.6974 32.1586 45.6815C32.2593 45.6669 32.3615 45.6661 32.4624 45.6793C32.5611 45.6913 32.657 45.7199 32.7462 45.7639C32.8392 45.8128 32.921 45.8808 32.986 45.9634C33.0645 46.0621 33.1247 46.1739 33.1639 46.2938ZM32.7214 46.4464C32.6942 46.3608 32.6491 46.2821 32.5889 46.2154C32.5387 46.1602 32.4743 46.1198 32.4027 46.0987C32.3344 46.0794 32.2633 46.0725 32.1926 46.0784C32.1163 46.0854 32.0411 46.1019 31.9688 46.1274L31.7576 46.2004L32.116 47.2393L32.3174 47.1699C32.4693 47.1245 32.602 47.0303 32.695 46.9019C32.7761 46.7823 32.7849 46.6304 32.7214 46.4464Z" fill="white"/>
<path d="M34.2328 46.8541L33.8162 47.0302L33.0844 45.2991L33.5011 45.123L34.2328 46.8541Z" fill="white"/>
<path d="M35.1722 44.7571L34.7 44.9885L35.3565 46.3283L34.9526 46.5262L34.2962 45.1864L33.824 45.4178L33.6536 45.0698L35.0018 44.4092L35.1722 44.7571Z" fill="white"/>
<path d="M36.4575 45.7354L36.0631 45.9568L35.143 44.3182L35.5372 44.0967L36.4575 45.7354Z" fill="white"/>
<path d="M38.2797 44.5843L37.8532 44.8641L36.5524 44.2474L36.5458 44.2517L37.2288 45.2737L36.8637 45.513L35.8329 43.9416L36.2617 43.6603L37.5587 44.2762L37.5655 44.2719L36.8839 43.2521L37.2489 43.0127L38.2797 44.5843Z" fill="white"/>
<path d="M38.705 42.3656L38.0903 42.8475L38.3295 43.1525L38.8965 42.7078L39.1273 43.0024L38.5605 43.4469L39.0108 44.0214L38.6611 44.2956L37.5014 42.8167L38.4657 42.0605L38.705 42.3656Z" fill="white"/>
<path d="M40.699 41.2754C40.7939 41.3693 40.8682 41.4821 40.9169 41.6064C40.9657 41.7307 40.9879 41.8639 40.9822 41.9973C40.9583 42.2644 40.8369 42.5134 40.6411 42.6968C40.4454 42.8801 40.189 42.9849 39.9208 42.9913C39.7873 42.9882 39.6559 42.9572 39.535 42.9004C39.4142 42.8435 39.3065 42.762 39.219 42.6611C39.1242 42.5685 39.0502 42.4567 39.0019 42.3332C38.9537 42.2097 38.9323 42.0773 38.9392 41.9449C38.9692 41.6796 39.0927 41.4337 39.2876 41.2513C39.4825 41.0688 39.736 40.9617 40.0027 40.9492C40.1353 40.951 40.2659 40.9811 40.386 41.0373C40.506 41.0935 40.6127 41.1747 40.699 41.2754ZM40.3476 41.6043C40.2482 41.49 40.1081 41.419 39.9571 41.4065C39.8857 41.4031 39.8144 41.4141 39.7473 41.4387C39.6803 41.4634 39.6188 41.5013 39.5666 41.5501C39.5145 41.5989 39.4726 41.6578 39.4436 41.723C39.4145 41.7883 39.3989 41.8588 39.3976 41.9303C39.401 42.0815 39.4629 42.2255 39.5702 42.3321C39.671 42.4483 39.8123 42.5216 39.9653 42.5369C40.0369 42.5411 40.1086 42.5307 40.1761 42.5063C40.2435 42.4819 40.3053 42.444 40.3577 42.395C40.41 42.346 40.4518 42.2868 40.4806 42.2211C40.5093 42.1554 40.5244 42.0845 40.5248 42.0128C40.5205 41.8589 40.457 41.7125 40.3476 41.6043Z" fill="white"/>
<path d="M23.563 19.3122H22.5295V19.0297L23.0867 18.5251C23.1202 18.4984 23.1479 18.4651 23.168 18.4273C23.1882 18.3894 23.2003 18.3478 23.2037 18.3051C23.2046 18.2822 23.2008 18.2593 23.1925 18.238C23.1842 18.2166 23.1715 18.1972 23.1553 18.181C23.1178 18.1484 23.0692 18.1315 23.0196 18.1337C22.97 18.136 22.9232 18.1572 22.8888 18.1931C22.8508 18.2368 22.8281 18.2917 22.8242 18.3495L22.4993 18.3051C22.5047 18.24 22.5232 18.1767 22.5538 18.1189C22.5843 18.0612 22.6262 18.0102 22.6769 17.9691C22.7809 17.8857 22.911 17.8417 23.0443 17.845C23.1752 17.8413 23.3036 17.881 23.4096 17.9579C23.4595 17.9955 23.4995 18.0448 23.5259 18.1015C23.5523 18.1581 23.5643 18.2204 23.561 18.2829C23.5634 18.3655 23.5413 18.447 23.4974 18.517C23.4444 18.5934 23.3816 18.6627 23.3107 18.7229L22.9797 19.0176H23.563V19.3122Z" fill="#333333"/>
<path d="M24.8758 18.306C24.8975 18.4006 24.908 18.4975 24.9072 18.5946C24.9079 18.6924 24.8974 18.7899 24.8758 18.8852C24.8568 18.9694 24.8248 19.0501 24.781 19.1244C24.7392 19.1945 24.6792 19.252 24.6074 19.2909C24.5282 19.3327 24.4396 19.3535 24.3501 19.3515C24.2328 19.3555 24.118 19.3176 24.0261 19.2445C23.9398 19.1739 23.8759 19.0795 23.8425 18.973C23.8049 18.8505 23.7869 18.7228 23.789 18.5946C23.7881 18.4975 23.7986 18.4006 23.8202 18.306C23.8394 18.2226 23.8718 18.1429 23.9161 18.0698C23.9588 18.0002 24.0195 17.9434 24.0917 17.9053C24.1715 17.8643 24.2604 17.8438 24.3501 17.8458C24.4395 17.8438 24.528 17.8643 24.6074 17.9053C24.6791 17.9435 24.7391 18.0003 24.781 18.0698C24.8247 18.1431 24.8567 18.2228 24.8758 18.306ZM24.56 18.5946C24.5601 18.5444 24.5574 18.4942 24.5519 18.4442C24.5462 18.3947 24.5364 18.3458 24.5226 18.2979C24.5112 18.253 24.4886 18.2117 24.457 18.1778C24.4433 18.1632 24.4268 18.1517 24.4083 18.1438C24.3899 18.136 24.3701 18.1321 24.3501 18.1324C24.33 18.1322 24.31 18.1361 24.2914 18.1439C24.2728 18.1517 24.2561 18.1633 24.2421 18.1778C24.2099 18.2114 24.187 18.2528 24.1755 18.2979C24.1618 18.3459 24.1516 18.3948 24.1452 18.4442C24.139 18.4941 24.136 18.5444 24.1362 18.5946C24.136 18.6452 24.1391 18.6958 24.1452 18.746C24.1516 18.7961 24.1618 18.8457 24.1755 18.8943C24.1867 18.9396 24.2093 18.9813 24.2411 19.0154C24.2551 19.0302 24.272 19.0418 24.2908 19.0496C24.3096 19.0574 24.3298 19.0613 24.3501 19.0609C24.3701 19.0611 24.3899 19.0572 24.4083 19.0494C24.4268 19.0416 24.4433 19.03 24.457 19.0154C24.4888 18.9813 24.5114 18.9396 24.5226 18.8943C24.5363 18.8461 24.5461 18.7968 24.5519 18.747C24.5574 18.6964 24.5601 18.6455 24.56 18.5946Z" fill="#333333"/>
<path d="M26.1706 19.3122H25.1371V19.0297L25.6943 18.5251C25.7278 18.4984 25.7555 18.4651 25.7756 18.4273C25.7958 18.3894 25.8079 18.3478 25.8113 18.3051C25.8122 18.2822 25.8084 18.2593 25.8001 18.238C25.7918 18.2166 25.7791 18.1972 25.7629 18.181C25.7254 18.1484 25.6768 18.1315 25.6272 18.1337C25.5776 18.136 25.5308 18.1572 25.4964 18.1931C25.4584 18.2368 25.4357 18.2917 25.4318 18.3495L25.1069 18.3051C25.1123 18.24 25.1309 18.1767 25.1614 18.1189C25.1919 18.0612 25.2338 18.0102 25.2845 17.9691C25.3885 17.8857 25.5186 17.8417 25.6519 17.845C25.7828 17.8413 25.9112 17.881 26.0172 17.9579C26.0671 17.9955 26.1071 18.0448 26.1335 18.1015C26.1599 18.1581 26.1719 18.2204 26.1686 18.2829C26.171 18.3655 26.1489 18.447 26.105 18.517C26.052 18.5934 25.9892 18.6627 25.9183 18.7229L25.5873 19.0176H26.1706V19.3122Z" fill="#333333"/>
<path d="M27.2139 19.3127H26.8749V18.2632L26.6085 18.4691L26.4329 18.2289L26.9032 17.8838H27.2139V19.3127Z" fill="#333333"/>
<path d="M15.8459 26.0676C15.707 26.0682 15.5685 26.0513 15.4338 26.0173L15.5251 25.4163C15.5987 25.4429 15.6763 25.4568 15.7546 25.4573C15.812 25.4614 15.8693 25.4484 15.9192 25.4198C15.9691 25.3912 16.0093 25.3484 16.0347 25.2968L16.0412 25.2841L15.198 23.793H16.0662L16.4468 24.6236L16.7899 23.793H17.6361L16.7834 25.4634C16.6972 25.647 16.5644 25.8049 16.3982 25.9212C16.2325 26.0231 16.0404 26.074 15.8459 26.0676ZM18.8283 26.0833C18.5088 26.0918 18.1989 25.9737 17.9663 25.7546C17.7429 25.5284 17.6176 25.2233 17.6173 24.9054C17.617 24.5875 17.7418 24.2823 17.9647 24.0557C18.1986 23.8378 18.5088 23.7208 18.8283 23.73C18.9939 23.7293 19.1584 23.7575 19.3144 23.8134C19.4566 23.8618 19.5877 23.9383 19.6999 24.0383L19.2404 24.592C19.1986 24.5428 19.1471 24.5027 19.0891 24.4741C19.0312 24.4456 18.968 24.4292 18.9035 24.4259C18.839 24.4227 18.7745 24.4327 18.714 24.4553C18.6535 24.478 18.5982 24.5127 18.5517 24.5575C18.5079 24.6041 18.4739 24.659 18.4518 24.719C18.4296 24.779 18.4197 24.8428 18.4227 24.9067C18.4201 24.9697 18.4304 25.0326 18.4528 25.0915C18.4752 25.1505 18.5094 25.2043 18.5532 25.2496C18.5945 25.2925 18.6441 25.3263 18.6991 25.3491C18.754 25.3718 18.8131 25.3829 18.8725 25.3818C18.944 25.3856 19.0153 25.3712 19.0797 25.3398C19.1441 25.3084 19.1994 25.2612 19.2404 25.2025L19.6999 25.7529C19.5847 25.8644 19.448 25.9511 19.2981 26.008C19.1483 26.0648 18.9884 26.0904 18.8283 26.0833ZM19.9075 26.0204V23.793H22.0155V26.0204H21.2667V24.419H20.6562V26.0204H19.9075ZM22.4307 26.0204V23.793H23.9629V24.4158H23.1355V24.6078H23.9124V25.1898H23.1355V25.3974H24.0164V26.0204H22.4307ZM24.3277 26.0204V23.793H25.0764V25.3879H25.5609V23.793H26.3097V25.3879H26.7942V23.793H27.543V26.0204H24.3277ZM27.9582 26.0204V23.793H28.707V24.5481H29.3174V23.793H30.0662V26.0204H29.3174V25.1742H28.707V26.0204H27.9582ZM32.5043 25.7529C32.2582 25.966 31.9435 26.0833 31.6179 26.0833C31.2923 26.0833 30.9776 25.966 30.7314 25.7529C30.6154 25.6428 30.5241 25.5093 30.4637 25.3613C30.4032 25.2132 30.375 25.054 30.3809 24.8941C30.3745 24.7365 30.4023 24.5793 30.4626 24.4334C30.5228 24.2875 30.614 24.1565 30.7299 24.0493C30.9798 23.8429 31.2938 23.73 31.6179 23.73C31.942 23.73 32.256 23.8429 32.5059 24.0493C32.6222 24.1562 32.7138 24.2871 32.7744 24.433C32.835 24.5789 32.8631 24.7363 32.8567 24.8941C32.8626 25.0541 32.8341 25.2135 32.7734 25.3616C32.7126 25.5097 32.6208 25.6431 32.5043 25.7529ZM31.6172 25.3912C31.6768 25.3924 31.7358 25.3804 31.7902 25.3562C31.8445 25.332 31.8929 25.2962 31.9319 25.2512C32.0177 25.1525 32.0626 25.0248 32.0575 24.8941C32.0632 24.767 32.0186 24.6427 31.9335 24.5481C31.8921 24.5062 31.8429 24.4729 31.7886 24.4502C31.7343 24.4275 31.6761 24.4158 31.6173 24.4158C31.5584 24.4158 31.5002 24.4275 31.4459 24.4502C31.3916 24.4729 31.3424 24.5062 31.301 24.5481C31.2157 24.6426 31.171 24.7669 31.1767 24.8941C31.1716 25.0246 31.216 25.1521 31.301 25.2512C31.3401 25.2965 31.3887 25.3325 31.4434 25.3567C31.4981 25.3809 31.5575 25.3927 31.6172 25.3912ZM33.1714 26.0204V23.793H34.7036V24.4158H33.8762V24.6078H34.6531V25.1898H33.8762V25.3974H34.7571V26.0204H33.1714ZM16.9511 27.4064V29.5055H16.63V27.7085H15.7299V29.5055H15.409V27.4064L16.9511 27.4064ZM17.9165 27.4064C18.0774 27.3981 18.2372 27.4375 18.3759 27.5196C18.458 27.5765 18.5248 27.6529 18.5704 27.7418C18.6159 27.8308 18.6388 27.9296 18.6371 28.0295C18.6391 28.1165 18.6219 28.2028 18.5865 28.2822C18.5511 28.3617 18.4985 28.4323 18.4326 28.489C18.2874 28.6045 18.1048 28.6627 17.9196 28.6526H17.7748V29.5055H17.4539V27.4064L17.9165 27.4064ZM17.7748 28.3569H17.9196C18.1965 28.3569 18.3289 28.2215 18.3289 28.0263C18.3289 27.9099 18.2816 27.7021 17.9165 27.7021H17.7748V28.3569ZM20.1222 27.7085H19.285V28.2404H20.0972V28.5425H19.285V29.2034H20.1222V29.5055H18.9641V27.4064H20.1222V27.7085ZM22.0476 27.4064V29.2034H22.2868V29.9777H21.9848V29.5055H20.6315V29.9777H20.3292V29.2034C20.4805 29.2097 20.5999 29.0775 20.6631 28.9201C20.7225 28.7429 20.7481 28.5561 20.7385 28.3694V27.4064H22.0476ZM21.0594 28.3694C21.0594 28.6935 21.0247 28.8541 20.987 28.9548C20.9528 29.0494 20.8967 29.1346 20.8233 29.2034H21.7268V27.7085H21.0594V28.3694ZM24.1241 27.4064V29.5055H23.8029V27.7085H22.9028V29.5055H22.582V27.4064L24.1241 27.4064ZM25.0894 27.4064C25.2504 27.3981 25.4102 27.4375 25.5489 27.5196C25.631 27.5765 25.6978 27.6529 25.7433 27.7418C25.7889 27.8308 25.8118 27.9296 25.81 28.0295C25.8121 28.1165 25.7948 28.2028 25.7594 28.2822C25.7241 28.3617 25.6715 28.4323 25.6055 28.489C25.4603 28.6045 25.2778 28.6627 25.0925 28.6526H24.9477V29.5055H24.6268V27.4064L25.0894 27.4064ZM24.9477 28.3569H25.0925C25.3694 28.3569 25.5018 28.2215 25.5018 28.0263C25.5018 27.9099 25.4545 27.7021 25.0894 27.7021H24.9477V28.3569ZM27.5532 28.0925L26.1371 29.5999V27.4064H26.4579V28.8258L27.8744 27.3182V29.5055H27.5532L27.5532 28.0925ZM28.8112 28.6305C28.692 28.6149 28.5797 28.5659 28.4873 28.489C28.4257 28.4328 28.3775 28.3634 28.3464 28.286C28.3153 28.2086 28.3022 28.1252 28.3078 28.042C28.3015 27.8807 28.3593 27.7235 28.4684 27.6045C28.651 27.4094 28.8901 27.4064 29.038 27.4064H29.5541V29.5055H29.233V28.6652H29.1575L28.5848 29.5055H28.1881L28.8112 28.6305ZM29.0758 27.7021C28.9214 27.7021 28.802 27.7179 28.7169 27.7998C28.6846 27.8312 28.659 27.8689 28.6417 27.9106C28.6244 27.9522 28.6158 27.9969 28.6163 28.042C28.6136 28.0907 28.623 28.1392 28.6439 28.1832C28.6648 28.2272 28.6964 28.2653 28.7358 28.2939C28.8343 28.3468 28.9451 28.3729 29.0569 28.3694H29.233V27.7021H29.0758ZM30.6395 27.7085V29.5055H30.3184V27.7085H29.8369V27.4064H31.121V27.7085H30.6395ZM32.8199 28.0925L31.4038 29.5999V27.4064H31.7246V28.8258L33.1411 27.3182V29.5055H32.8199L32.8199 28.0925ZM34.802 27.7085H33.9647V28.2404H34.7769V28.5425H33.9647V29.2034H34.802V29.5055H33.6439V27.4064H34.802L34.802 27.7085ZM18.1111 31.0047C18.2961 30.9003 18.506 30.8481 18.7184 30.8538C18.8535 30.8462 18.9886 30.8667 19.1154 30.9138C19.2421 30.9609 19.3578 31.0337 19.4551 31.1276C19.5589 31.235 19.64 31.3623 19.6936 31.5018C19.7471 31.6413 19.772 31.7901 19.7667 31.9395C19.7726 32.0879 19.7481 32.236 19.6945 32.3746C19.6409 32.5132 19.5594 32.6393 19.4551 32.7451C19.3572 32.8417 19.2404 32.9169 19.112 32.9662C18.9837 33.0155 18.8465 33.0377 18.7092 33.0315C18.4991 33.0354 18.292 32.981 18.1111 32.8742V32.4934C18.1897 32.5715 18.2831 32.6331 18.3858 32.6747C18.4884 32.7163 18.5984 32.7371 18.7092 32.7357C18.8025 32.7408 18.896 32.7267 18.9837 32.6942C19.0714 32.6617 19.1515 32.6116 19.2191 32.547C19.3432 32.4206 19.4189 32.2545 19.4329 32.0779H18.3945V31.7758H19.4267C19.4115 31.6168 19.344 31.4674 19.2348 31.351C19.1666 31.2828 19.0848 31.2297 18.9948 31.195C18.9048 31.1603 18.8086 31.1449 18.7123 31.1495C18.4898 31.1493 18.2753 31.2324 18.1111 31.3824L18.1111 31.0047ZM21.7237 31.3824C21.5713 31.2336 21.367 31.1501 21.1541 31.1495C20.6977 31.1495 20.3892 31.4863 20.3892 31.9489C20.3853 32.0517 20.4023 32.1542 20.4392 32.2502C20.4762 32.3462 20.5323 32.4337 20.6041 32.5073C20.676 32.5809 20.7621 32.6391 20.8572 32.6784C20.9522 32.7177 21.0543 32.7372 21.1572 32.7357C21.37 32.7302 21.5727 32.6435 21.7237 32.4934V32.8742C21.5489 32.9766 21.3502 33.0309 21.1476 33.0315C20.8716 33.0363 20.6049 32.9323 20.405 32.7421C20.2948 32.6421 20.2077 32.5194 20.1495 32.3825C20.0913 32.2455 20.0635 32.0976 20.0681 31.9489C20.0639 31.7961 20.0918 31.6441 20.1498 31.5027C20.2078 31.3612 20.2948 31.2335 20.405 31.1276C20.5068 31.0337 20.6263 30.9611 20.7565 30.9141C20.8868 30.8671 21.0251 30.8466 21.1634 30.8538C21.361 30.8474 21.556 30.9 21.7237 31.0047V31.3824ZM22.7017 31.1936V32.9907H22.3806V31.1936H21.8991V30.8915H23.1832V31.1936H22.7017ZM25.4867 31.9427C25.4873 32.1589 25.4238 32.3703 25.3042 32.5504C25.1846 32.7304 25.0142 32.8709 24.8147 32.9541C24.6152 33.0373 24.3955 33.0594 24.1834 33.0176C23.9713 32.9758 23.7764 32.872 23.6233 32.7194C23.4703 32.5668 23.3659 32.3722 23.3235 32.1602C23.2811 31.9483 23.3025 31.7285 23.3851 31.5287C23.4677 31.329 23.6077 31.1582 23.7873 31.038C23.967 30.9179 24.1783 30.8538 24.3945 30.8538C24.5387 30.85 24.6821 30.8756 24.8161 30.929C24.95 30.9823 25.0718 31.0624 25.1739 31.1642C25.2761 31.266 25.3564 31.3875 25.4102 31.5214C25.464 31.6552 25.49 31.7985 25.4867 31.9427ZM25.1655 31.9427C25.1655 31.4769 24.8444 31.1495 24.3945 31.1495C23.9443 31.1495 23.6234 31.4769 23.6234 31.9427C23.6234 32.4084 23.9443 32.7357 24.3945 32.7357C24.8444 32.7357 25.1655 32.4084 25.1655 31.9427ZM26.2095 31.7223H27.1095V30.8915H27.4307V32.9907H27.1095V32.0244H26.2095V32.9907H25.8886V30.8915H26.2095L26.2095 31.7223ZM29.3496 31.5776L27.9335 33.085V30.8915H28.2543V32.3109L29.6708 30.8033V32.9907H29.3496V31.5776ZM31.5897 31.5776L30.1736 33.085V30.8915H30.4944V32.3109L31.9109 30.8033V32.9907H31.5897L31.5897 31.5776Z" fill="#333333"/>
</g>
<defs>
<linearGradient id="paint0_linear_1170_23413" x1="4.71761" y1="60.1298" x2="41.327" y2="-3.2795" gradientUnits="userSpaceOnUse">
<stop stop-color="#2B2C2E"/>
<stop offset="0.01148" stop-color="#2F3032"/>
<stop offset="0.05649" stop-color="#3C3D3F"/>
<stop offset="0.1" stop-color="#404143"/>
<stop offset="0.13977" stop-color="#444547"/>
<stop offset="0.18098" stop-color="#4E5154"/>
<stop offset="0.22269" stop-color="#606668"/>
<stop offset="0.25" stop-color="#6F777A"/>
<stop offset="0.28578" stop-color="#787E81"/>
<stop offset="0.3555" stop-color="#85888B"/>
<stop offset="0.4229" stop-color="#898B8E"/>
<stop offset="0.48086" stop-color="#8B8D91"/>
<stop offset="0.51571" stop-color="#939599"/>
<stop offset="0.54444" stop-color="#9FA3A7"/>
<stop offset="0.5697" stop-color="#B1B6BB"/>
<stop offset="0.58939" stop-color="#C4CBD1"/>
<stop offset="0.61981" stop-color="#B4BBC0"/>
<stop offset="0.69807" stop-color="#8E969A"/>
<stop offset="0.76088" stop-color="#777F83"/>
<stop offset="0.8" stop-color="#6F777A"/>
<stop offset="0.81379" stop-color="#666D70"/>
<stop offset="0.8613" stop-color="#4C5153"/>
<stop offset="0.90857" stop-color="#3A3C3F"/>
<stop offset="0.95509" stop-color="#2F3032"/>
<stop offset="1" stop-color="#2B2C2E"/>
</linearGradient>
<clipPath id="clip0_1170_23413">
<rect width="50" height="50" fill="white"/>
</clipPath>
</defs>
</svg>
