<svg width="24" height="24" viewBox="0 0 24 24" fill="none" xmlns="http://www.w3.org/2000/svg">
<path d="M13 3C13 2.44772 12.5523 2 12 2C11.4477 2 11 2.44772 11 3V3.9616L10.346 3.6159C9.85775 3.3578 9.25271 3.54439 8.99461 4.03266C8.73651 4.52093 8.92311 5.12597 9.41137 5.38407L11 6.22382V8.12601C10.285 8.31004 9.64737 8.6868 9.14578 9.1976L7.49769 8.24608L7.56477 6.45039C7.58538 5.89849 7.15469 5.43438 6.60279 5.41376C6.05089 5.39315 5.58678 5.82384 5.56616 6.37574L5.53855 7.11496L4.70578 6.63417C4.22749 6.35802 3.6159 6.5219 3.33976 7.00019C3.06361 7.47848 3.22749 8.09007 3.70578 8.36622L4.53855 8.84701L3.91217 9.24054C3.44451 9.53435 3.30358 10.1516 3.59739 10.6193C3.89119 11.0869 4.50847 11.2279 4.97613 10.9341L6.49769 9.97813L8.14495 10.9292C8.05048 11.27 8 11.6291 8 12C8 12.3709 8.05048 12.73 8.14494 13.0708L6.49764 14.0219L4.97608 13.0659C4.50842 12.7721 3.89114 12.9131 3.59734 13.3807C3.30353 13.8484 3.44447 14.4657 3.91212 14.7595L4.5385 15.153L3.70573 15.6338C3.22744 15.9099 3.06357 16.5215 3.33971 16.9998C3.61585 17.4781 4.22744 17.642 4.70573 17.3658L5.5385 16.885L5.56611 17.6243C5.58673 18.1762 6.05085 18.6069 6.60275 18.5862C7.15464 18.5656 7.58534 18.1015 7.56472 17.5496L7.49764 15.7539L9.14576 14.8024C9.64735 15.3132 10.285 15.69 11 15.874V17.7762L9.41137 18.6159C8.92311 18.874 8.73651 19.4791 8.99461 19.9673C9.25271 20.4556 9.85775 20.6422 10.346 20.3841L11 20.0384V21C11 21.5523 11.4477 22 12 22C12.5523 22 13 21.5523 13 21V20.0384L13.654 20.3841C14.1423 20.6422 14.7473 20.4556 15.0054 19.9673C15.2635 19.4791 15.0769 18.874 14.5887 18.6159L13 17.7762V15.874C13.7149 15.69 14.3524 15.3133 14.854 14.8026L16.5023 15.7543L16.4353 17.55C16.4146 18.1019 16.8453 18.566 17.3972 18.5866C17.9491 18.6072 18.4132 18.1765 18.4339 17.6246L18.4615 16.8854L19.2942 17.3662C19.7725 17.6424 20.3841 17.4785 20.6603 17.0002C20.9364 16.5219 20.7725 15.9103 20.2942 15.6342L19.4615 15.1534L20.0879 14.7598C20.5555 14.466 20.6964 13.8488 20.4026 13.3811C20.1088 12.9135 19.4915 12.7725 19.0239 13.0663L17.5023 14.0223L15.855 13.0711C15.9495 12.7302 16 12.371 16 12C16 11.629 15.9495 11.2698 15.855 10.9288L17.5023 9.97774L19.0238 10.9337C19.4915 11.2275 20.1088 11.0865 20.4026 10.6189C20.6964 10.1512 20.5555 9.53396 20.0878 9.24016L19.4614 8.84663L20.2942 8.36583C20.7725 8.08969 20.9364 7.4781 20.6602 6.99981C20.3841 6.52152 19.7725 6.35764 19.2942 6.63378L18.4614 7.11458L18.4338 6.37535C18.4132 5.82345 17.9491 5.39276 17.3972 5.41338C16.8453 5.434 16.4146 5.89811 16.4352 6.45001L16.5023 8.24569L14.854 9.19735C14.3524 8.68668 13.7149 8.31002 13 8.12602V6.22382L14.5887 5.38407C15.0769 5.12597 15.2635 4.52093 15.0054 4.03266C14.7473 3.54439 14.1423 3.3578 13.654 3.6159L13 3.9616V3Z" fill="#E88320"/>
</svg>
