<svg width="40" height="40" viewBox="0 0 40 40" fill="none" xmlns="http://www.w3.org/2000/svg">
<g clip-path="url(#clip0_1125_11513)">
<path d="M11.2623 18.3333L17.8452 11.7504C18.4962 11.0995 18.4962 10.0443 17.8452 9.39339C17.1943 8.74253 16.139 8.74253 15.4882 9.39339L6.06017 18.8215C5.40917 19.4723 5.40917 20.5277 6.06017 21.1785L15.4882 30.6067C16.139 31.2575 17.1943 31.2575 17.8452 30.6067C18.4962 29.9557 18.4962 28.9005 17.8452 28.2495L11.2623 21.6667H33.3333C34.2538 21.6667 35 20.9205 35 20C35 19.0795 34.2538 18.3333 33.3333 18.3333H11.2623Z" fill="#131313"/>
</g>
<defs>
<clipPath id="clip0_1125_11513">
<rect width="40" height="40" fill="white" transform="matrix(0 1 -1 0 40 0)"/>
</clipPath>
</defs>
</svg>
