<svg width="24" height="24" viewBox="0 0 24 24" fill="none" xmlns="http://www.w3.org/2000/svg">
<g clip-path="url(#clip0_1220_25058)">
<path d="M6.85728 2.44489C7.99928 3.2779 8.88916 4.41552 9.65002 5.50317L10.092 6.14692L10.509 6.76166C10.9374 7.38835 10.8351 8.244 10.2531 8.74772L8.30198 10.1967C8.10859 10.3404 8.04429 10.6014 8.16028 10.8125C8.60173 11.6161 9.38819 12.8119 10.2882 13.7119C11.1891 14.6128 12.4414 15.45 13.3002 15.9412C13.5229 16.0685 13.803 15.9948 13.9438 15.7803L15.2131 13.8468C15.6999 13.1991 16.6088 13.0576 17.2695 13.5149L17.9333 13.9736C19.1718 14.8335 20.5038 15.8106 21.521 17.1133C21.8626 17.5507 21.9133 18.1227 21.7096 18.5981C20.8728 20.5507 18.7552 22.2136 16.5524 22.1325L16.2519 22.1158L16.0189 22.0957L15.7611 22.0668L15.4796 22.0278L15.1753 21.9771C15.1227 21.9677 15.0693 21.9576 15.0149 21.9471L14.6786 21.8765C14.6208 21.8635 14.5622 21.8499 14.5028 21.8356L14.1367 21.742L13.7522 21.6312L13.3502 21.5019C11.5039 20.8764 9.16111 19.6465 6.75735 17.2427C4.35357 14.8389 3.12366 12.4961 2.49814 10.6498L2.36885 10.2478L2.25808 9.86331L2.16442 9.49724L2.0865 9.15071C2.06299 9.03857 2.04187 8.92986 2.02292 8.82477L1.97229 8.52048L1.93323 8.23892L1.90434 7.98113L1.88425 7.74819L1.86754 7.44767C1.78675 5.25221 3.46855 3.11902 5.41215 2.28605C5.86822 2.09059 6.4206 2.12636 6.85728 2.44489ZM14.9917 6.03952L15.1077 6.05315C15.8356 6.18149 16.5042 6.53699 17.0177 7.06867C17.5311 7.60035 17.863 8.28093 17.9659 9.01287C18.0428 9.55978 17.6617 10.0654 17.1148 10.1423C16.607 10.2137 16.1347 9.89022 16.0083 9.40576L15.9854 9.29121C15.9413 8.97753 15.799 8.68585 15.579 8.45799C15.3956 8.2681 15.1661 8.13065 14.9141 8.05828L14.7604 8.02276C14.2166 7.92686 13.8534 7.4082 13.9493 6.86431C14.0384 6.35926 14.492 6.01004 14.9917 6.03952ZM15 2.99999C15.7879 2.99999 16.5682 3.15518 17.2961 3.45671C18.0241 3.75824 18.6855 4.2002 19.2427 4.75735C19.7998 5.3145 20.2418 5.97594 20.5433 6.70389C20.8448 7.43184 21 8.21206 21 8.99999C21 9.55227 20.5523 9.99999 20 9.99999C19.4872 9.99999 19.0645 9.61395 19.0067 9.11661L19 8.99999C19 8.4747 18.8966 7.95456 18.6955 7.46926C18.4945 6.98395 18.1999 6.543 17.8284 6.17156C17.457 5.80013 17.0161 5.50549 16.5307 5.30447C16.1263 5.13695 15.6977 5.03719 15.2621 5.00858L15 4.99999C14.4477 4.99999 14 4.55227 14 3.99999C14 3.44771 14.4477 2.99999 15 2.99999Z" fill="#E88320"/>
</g>
<defs>
<clipPath id="clip0_1220_25058">
<rect width="24" height="24" fill="white"/>
</clipPath>
</defs>
</svg>
