<svg width="25" height="25" viewBox="0 0 25 25" fill="none" xmlns="http://www.w3.org/2000/svg">
<path fill-rule="evenodd" clip-rule="evenodd" d="M15.1652 3.25C14.2029 1.58333 11.7973 1.58333 10.835 3.25L9.43792 5.66988C9.02371 6.38732 9.26952 7.30471 9.98696 7.71892C10.7044 8.13314 11.6218 7.88732 12.036 7.16988L13.0001 5.5L15.2207 9.34623C14.6162 9.40493 14.0831 9.83011 13.9166 10.4514C13.7022 11.2516 14.1771 12.0741 14.9773 12.2885L17.8751 13.065C18.2149 13.156 18.5529 13.1271 18.8643 12.9905C18.9664 12.9458 19.0633 12.8898 19.1531 12.8238C19.4271 12.6224 19.6211 12.3442 19.7122 12.0043L20.4886 9.10654C20.703 8.30634 20.2282 7.48383 19.428 7.26942C18.8067 7.10295 18.1719 7.352 17.8188 7.84623L15.1652 3.25ZM3.04081 16.75L5.69446 12.1538C5.08994 12.095 4.55696 11.6698 4.3905 11.0486C4.17608 10.2484 4.65096 9.42589 5.45116 9.21148L8.34893 8.43502C9.13937 8.22322 9.97022 8.69018 10.1861 9.49568L10.9625 12.3935C11.1769 13.1937 10.7021 14.0162 9.90185 14.2306C9.2805 14.3971 8.6457 14.148 8.29259 13.6536L6.0719 17.5H8.0001C8.82853 17.5 9.5001 18.1716 9.5001 19C9.5001 19.8284 8.82853 20.5 8.0001 20.5H5.20588C3.28138 20.5 2.07856 18.4167 3.04081 16.75ZM21.5623 14.3301C21.1481 13.6127 20.2307 13.3669 19.5133 13.7811C18.7958 14.1953 18.55 15.1127 18.9642 15.8301L19.9283 17.5H15.4872C15.7387 16.9471 15.637 16.2728 15.1821 15.818C14.5964 15.2322 13.6466 15.2322 13.0608 15.818L10.9473 17.9315C10.6712 18.2036 10.5001 18.5818 10.5001 19C10.5001 19.4124 10.6607 19.786 10.9474 20.0685L13.0608 22.182C13.6466 22.7678 14.5964 22.7678 15.1821 22.182C15.637 21.7272 15.7387 21.0529 15.4872 20.5H20.7943C22.7188 20.5 23.9216 18.4167 22.9594 16.75L21.5623 14.3301Z" fill="#E88320"/>
</svg>
