<svg width="75" height="15" viewBox="0 0 75 15" fill="none" xmlns="http://www.w3.org/2000/svg">
<path d="M6.82495 1.79231C7.12633 1.27492 7.87383 1.27492 8.17514 1.79231L9.92201 4.79152L13.3143 5.52609C13.8995 5.65281 14.1305 6.36369 13.7315 6.81019L11.4189 9.39837L11.7685 12.8516C11.8288 13.4472 11.2241 13.8866 10.6762 13.6452L7.50008 12.2456L4.32393 13.6452C3.77601 13.8866 3.17129 13.4472 3.23161 12.8516L3.58124 9.39837L1.26865 6.81019C0.8697 6.36369 1.10068 5.65281 1.68588 5.52609L5.0781 4.79152L6.82495 1.79231Z" fill="#C8C8C8"/>
<path d="M21.825 1.79231C22.1263 1.27492 22.8738 1.27492 23.1751 1.79231L24.922 4.79152L28.3143 5.52609C28.8995 5.65281 29.1305 6.36369 28.7315 6.81019L26.4189 9.39837L26.7685 12.8516C26.8288 13.4472 26.2241 13.8866 25.6762 13.6452L22.5001 12.2456L19.3239 13.6452C18.776 13.8866 18.1713 13.4472 18.2316 12.8516L18.5812 9.39837L16.2687 6.81019C15.8697 6.36369 16.1007 5.65281 16.6859 5.52609L20.0781 4.79152L21.825 1.79231Z" fill="#C8C8C8"/>
<path d="M36.825 1.79231C37.1263 1.27492 37.8738 1.27492 38.1751 1.79231L39.922 4.79152L43.3143 5.52609C43.8995 5.65281 44.1305 6.36369 43.7315 6.81019L41.4189 9.39837L41.7685 12.8516C41.8288 13.4472 41.2241 13.8866 40.6762 13.6452L37.5001 12.2456L34.3239 13.6452C33.776 13.8866 33.1713 13.4472 33.2316 12.8516L33.5812 9.39837L31.2687 6.81019C30.8697 6.36369 31.1007 5.65281 31.6859 5.52609L35.0781 4.79152L36.825 1.79231Z" fill="#C8C8C8"/>
<path d="M51.825 1.79231C52.1263 1.27492 52.8738 1.27492 53.1751 1.79231L54.922 4.79152L58.3143 5.52609C58.8995 5.65281 59.1305 6.36369 58.7315 6.81019L56.4189 9.39837L56.7685 12.8516C56.8288 13.4472 56.2241 13.8866 55.6762 13.6452L52.5001 12.2456L49.3239 13.6452C48.776 13.8866 48.1713 13.4472 48.2316 12.8516L48.5812 9.39837L46.2687 6.81019C45.8697 6.36369 46.1007 5.65281 46.6859 5.52609L50.0781 4.79152L51.825 1.79231Z" fill="#C8C8C8"/>
<path d="M66.825 1.79231C67.1263 1.27492 67.8738 1.27492 68.1751 1.79231L69.922 4.79152L73.3143 5.52609C73.8995 5.65281 74.1305 6.36369 73.7315 6.81019L71.4189 9.39837L71.7685 12.8516C71.8288 13.4472 71.2241 13.8866 70.6762 13.6452L67.5001 12.2456L64.3239 13.6452C63.776 13.8866 63.1713 13.4472 63.2316 12.8516L63.5812 9.39837L61.2687 6.81019C60.8697 6.36369 61.1007 5.65281 61.6859 5.52609L65.0781 4.79152L66.825 1.79231Z" fill="#C8C8C8"/>
</svg>
