<svg width="12" height="12" viewBox="0 0 12 12" fill="none" xmlns="http://www.w3.org/2000/svg">
<g clip-path="url(#clip0_1256_43354)">
<path d="M6 1C8.7614 1 11 3.23857 11 6C11 8.7614 8.7614 11 6 11C3.23857 11 1 8.7614 1 6C1 3.23857 3.23857 1 6 1ZM6 2C3.79086 2 2 3.79086 2 6C2 8.20915 3.79086 10 6 10C8.20915 10 10 8.20915 10 6C10 3.79086 8.20915 2 6 2ZM5.995 5C6.2739 5 6.5 5.2261 6.5 5.505V8.0669C6.64945 8.15335 6.75 8.31495 6.75 8.5C6.75 8.77615 6.52615 9 6.25 9H6.005C5.72605 9 5.5 8.7739 5.5 8.495V6C5.22385 6 5 5.77615 5 5.5C5 5.22385 5.22385 5 5.5 5H5.995ZM6 3.5C6.27615 3.5 6.5 3.72386 6.5 4C6.5 4.27614 6.27615 4.5 6 4.5C5.72385 4.5 5.5 4.27614 5.5 4C5.5 3.72386 5.72385 3.5 6 3.5Z" fill="#131313"/>
</g>
<defs>
<clipPath id="clip0_1256_43354">
<rect width="12" height="12" fill="white"/>
</clipPath>
</defs>
</svg>
