<svg width="30" height="30" viewBox="0 0 30 30" fill="none" xmlns="http://www.w3.org/2000/svg">
<path fill-rule="evenodd" clip-rule="evenodd" d="M20 17.5C23.3609 17.5 26.1023 20.1529 26.2442 23.4789L26.25 23.75V26.25C26.25 26.9404 25.6904 27.5 25 27.5C24.3589 27.5 23.8306 27.0175 23.7584 26.3958L23.75 26.25V23.75C23.75 21.7528 22.1889 20.1204 20.2203 20.0064L20 20H10C8.0029 20 6.37042 21.5611 6.25637 23.5297L6.25 23.75V26.25C6.25 26.9404 5.69035 27.5 5 27.5C4.35896 27.5 3.83062 27.0175 3.75841 26.3958L3.75 26.25V23.75C3.75 20.3891 6.40289 17.6477 9.72889 17.5058L10 17.5H20ZM15 2.5C18.4517 2.5 21.25 5.29822 21.25 8.75C21.25 12.2018 18.4517 15 15 15C11.5482 15 8.75 12.2018 8.75 8.75C8.75 5.29822 11.5482 2.5 15 2.5ZM15 5C12.9289 5 11.25 6.67894 11.25 8.75C11.25 10.8211 12.9289 12.5 15 12.5C17.0711 12.5 18.75 10.8211 18.75 8.75C18.75 6.67894 17.0711 5 15 5Z" fill="#131313"/>
</svg>
